<svg xmlns="http://www.w3.org/2000/svg" viewBox="0 0 50 50">
    <title>Chick-Fil-A Logo</title>
    <path d="M46.8416,17.8165c-4.2461,3.1607-9.82,4.0126-11.7642,1.4s.4747-7.7,4.72-10.8609c.3493-.26.6985-.4955,1.0459-.7112a23.5175,23.5175,0,0,0-6.3166-4.1319A8,8,0,0,1,35,8.9479c-.879,4.0644-3.7737,7.4411-6.32,6.89s-3.78-4.82-2.9-8.8852a7.5276,7.5276,0,0,1,3.2075-5.1144A23.5126,23.5126,0,0,0,1.5,25,23.3885,23.3885,0,0,0,5.1,37.502c3.9734-11.4342,13.2782-20.35,22.24-19.397,5.9239.6294,9.0581,5.2559,8.663,12.4224-.3858,6.9978-3.4728,13.7847-7.6007,17.7265a23.52,23.52,0,0,0,18.87-30.7707c-.14.1123-.2828.2233-.43.3333m-30.3084,1.05c-.9837,1.1542-3.4582.66-5.2415-.86s-2.0922-3.3964-1.108-4.5512,2.8888-1.1519,4.6724.3689,2.6615,3.8874,1.6771,5.0424m5.715-2.73c-1.9145.8785-4.7912-1.3006-6.2023-4.3732s-.7346-5.686,1.18-6.5652,4.3428.31,5.7534,3.3823,1.1836,6.6769-.7307,7.5561m14.32,20.3071a34.596,34.596,0,0,0,.8911-6.0692q.0706-1.283.0186-2.48c2.8762.2606,6.95,3.0661,6.951,4.5481.0011,1.3446-2.582.3451-7.8607,4.001m-22.525,6.59c.3641-5.3374,3.386-9.0945,4.9043-9.5787a1.4592,1.4592,0,0,1,1.9935,1.4049c-.1647,1.9951-2.6719,3.35-3.0837,8.275-.1889,2.2726.599,4.8447,3.1186,4.9835,5.4556.3009,10.615-10.1274,11.0087-17.273.3407-6.1716-1.8908-9.0124-5.1256-9.3277C19.1312,20.7645,11.097,30.9965,8.29,41.5216a23.5716,23.5716,0,0,0,5.8868,4.3414,11.4675,11.4675,0,0,1-.1334-2.83M28.4369,26.5844c1.2617-.0008,1.295,1.1309,1.2842,1.6325-.0431,2.1218-2.6293,4.7145-3.8684,2.7224-.6754-1.5276,1.0158-4.3042,2.5842-4.3549M43.7654,44.8331h.4877l.4879,1.1718.4877-1.1718h.4876v2.0112h-.4876v-.97l-.3268.7845H44.58l-.3269-.7845v.97h-.4877Zm-1.8351,0h1.5335v.4528h-.5229v1.5584h-.4877V45.2858H41.93Z" fill="#c92437"/>
</svg>